# Blender 3.1.0
# www.blender.org
mtllib plane.mtl
o Plane
v 1.000000 0.273128 1.000000
v -1.000000 0.273129 1.000000
v -0.000234 -0.588108 0.937237
v -0.000234 0.000000 0.858527
v 0.000000 0.000000 -1.000000
v 0.989464 0.311715 0.999999
v -0.989458 0.311714 1.000001
v -0.040234 -0.588108 0.937232
v -0.018617 0.035526 0.858525
v -0.012173 0.038103 -1.000002
vn -0.2635 -0.9646 -0.0000
vn 0.2634 -0.9647 -0.0000
vn 1.0000 -0.0000 0.0001
vn 0.2739 0.9617 0.0023
vn -0.2643 0.9644 0.0004
vn -0.9994 0.0342 -0.0034
vn 0.0772 0.1271 0.9889
vn 0.1463 0.0155 0.9891
vn -0.5711 -0.7821 -0.2493
vn 0.8512 0.2520 -0.4604
vn -0.1261 -0.0492 0.9908
vn -0.8973 -0.0191 -0.4410
vt 0.000000 0.000000
vt 1.000000 0.000000
vt 0.000000 0.000000
vt 0.000000 0.000000
vt 0.500000 0.000000
vt 0.000000 0.000000
vt 0.500000 1.000000
vt 0.000000 0.000000
vt 1.000000 0.000000
vt 0.000000 0.000000
vt 0.000000 0.000000
vt 0.500000 0.000000
vt 0.000000 0.000000
vt 0.500000 1.000000
s 0
f 4/5/1 2/2/1 5/7/1
f 1/1/2 4/5/2 5/7/2
f 4/4/3 3/3/3 5/6/3
f 9/12/4 10/14/4 7/9/4
f 6/8/5 10/14/5 9/12/5
f 9/11/6 10/13/6 8/10/6
f 3/3/7 4/4/7 9/11/7 8/10/7
f 2/2/8 4/5/8 9/12/8 7/9/8
f 5/6/9 3/3/9 8/10/9 10/13/9
f 1/1/10 5/7/10 10/14/10 6/8/10
f 4/5/11 1/1/11 6/8/11 9/12/11
f 5/7/12 2/2/12 7/9/12 10/14/12
