# Blender 3.1.0
# www.blender.org
mtllib teste.mtl
o Cube.006
v 3.099477 1.182446 -0.513127
v 3.099477 -0.290021 -0.513127
v 3.099477 1.182446 0.513127
v 3.099477 -0.290020 0.513127
v 2.073223 1.182446 -0.513127
v 2.073223 -0.290020 -0.513127
v 2.073223 1.182446 0.513127
v 2.073223 -0.290020 0.513127
v 2.018644 -0.369594 -0.000000
v 2.586350 -0.451356 -0.625571
v 3.211921 0.446213 -0.625571
v 1.960779 0.446213 0.625571
v 3.211921 0.446213 0.625571
v 1.960779 0.446213 -0.625571
v 2.586350 1.343781 0.625571
v 3.154056 1.262020 0.000000
v 2.586350 -0.451355 0.625571
v 2.018644 1.262020 -0.000000
v 2.586350 1.343781 -0.625571
v 3.154056 -0.369594 0.000000
v 2.586350 1.569754 -0.000000
v 2.586350 0.446213 0.861546
v 1.804496 0.446213 -0.000000
v 2.586350 -0.677329 0.000000
v 3.368204 0.446213 -0.000000
v 2.586350 0.446213 -0.861546
vn 0.6730 0.5299 -0.5653
vn -0.0000 1.0263 -0.0000
vn 0.7989 0.6441 -0.0000
vn -0.6730 0.5299 -0.5653
vn -0.0000 0.7076 -0.7433
vn -0.6730 0.5299 0.5653
vn -0.0000 0.7076 0.7433
vn 0.6730 0.5299 0.5653
vn 0.6730 -0.5299 0.5653
vn -0.0000 -0.0000 1.0263
vn -0.0000 -0.7076 0.7433
vn 0.7642 -0.0000 0.6850
vn -0.7642 -0.0000 0.6850
vn -0.6730 -0.5299 0.5653
vn -1.0263 -0.0000 -0.0000
vn -0.7989 -0.6441 -0.0000
vn -0.7642 -0.0000 -0.6850
vn -0.6730 -0.5299 -0.5653
vn -0.0000 -1.0263 -0.0000
vn 0.6730 -0.5299 -0.5653
vn -0.0000 -0.7076 -0.7433
vn 1.0263 -0.0000 -0.0000
vn 0.7989 -0.6441 -0.0000
vn 0.7642 -0.0000 -0.6850
vn -0.0000 -0.0000 -1.0263
vn -0.7989 0.6441 -0.0000
vt 0.695665 0.750968
vt 0.695665 0.197780
vt 0.695665 0.750969
vt 0.695665 0.197780
vt 0.310114 0.750968
vt 0.310114 0.197780
vt 0.310114 0.750969
vt 0.310114 0.197780
vt 0.289609 0.167885
vt 0.502890 0.137168
vt 0.737909 0.474374
vt 0.267870 0.474374
vt 0.737909 0.474374
vt 0.267870 0.474374
vt 0.502890 0.811580
vt 0.716170 0.780864
vt 0.502890 0.137168
vt 0.289609 0.780864
vt 0.502890 0.811580
vt 0.716170 0.167885
vt 0.502890 0.896476
vt 0.502890 0.474374
vt 0.209156 0.474374
vt 0.502890 0.052273
vt 0.796623 0.474374
vt 0.502890 0.474374
s 1
usemtl cabeca1
f 1/1/1 21/21/2 16/16/3
f 5/5/4 21/21/2 19/19/5
f 21/21/2 7/7/6 15/15/7
f 21/21/2 3/3/8 16/16/3
f 4/4/9 22/22/10 17/17/11
f 3/3/8 22/22/10 13/13/12
f 22/22/10 7/7/6 12/12/13
f 22/22/10 8/8/14 17/17/11
f 8/8/14 23/23/15 9/9/16
f 7/7/6 23/23/15 12/12/13
f 23/23/15 5/5/4 14/14/17
f 23/23/15 6/6/18 9/9/16
f 6/6/18 24/24/19 9/9/16
f 2/2/20 24/24/19 10/10/21
f 24/24/19 4/4/9 17/17/11
f 24/24/19 8/8/14 9/9/16
f 2/2/20 25/25/22 20/20/23
f 1/1/1 25/25/22 11/11/24
f 25/25/22 3/3/8 13/13/12
f 25/25/22 4/4/9 20/20/23
f 6/6/18 26/26/25 10/10/21
f 5/5/4 26/26/25 14/14/17
f 26/26/25 1/1/1 11/11/24
f 26/26/25 2/2/20 10/10/21
f 1/1/1 19/19/5 21/21/2
f 5/5/4 18/18/26 21/21/2
f 21/21/2 18/18/26 7/7/6
f 21/21/2 15/15/7 3/3/8
f 4/4/9 13/13/12 22/22/10
f 3/3/8 15/15/7 22/22/10
f 22/22/10 15/15/7 7/7/6
f 22/22/10 12/12/13 8/8/14
f 8/8/14 12/12/13 23/23/15
f 7/7/6 18/18/26 23/23/15
f 23/23/15 18/18/26 5/5/4
f 23/23/15 14/14/17 6/6/18
f 6/6/18 10/10/21 24/24/19
f 2/2/20 20/20/23 24/24/19
f 24/24/19 20/20/23 4/4/9
f 24/24/19 17/17/11 8/8/14
f 2/2/20 11/11/24 25/25/22
f 1/1/1 16/16/3 25/25/22
f 25/25/22 16/16/3 3/3/8
f 25/25/22 13/13/12 4/4/9
f 6/6/18 14/14/17 26/26/25
f 5/5/4 19/19/5 26/26/25
f 26/26/25 19/19/5 1/1/1
f 26/26/25 11/11/24 2/2/20
